<svg height="500" width="500" xmlns="http://www.w3.org/2000/svg" xmlns:xlink="http://www.w3.org/1999/xlink"><defs><ellipse id="a" cx="250" cy="300" rx="200" ry="200"/><mask id="b" maskUnits="userSpaceOnUse"><path d="m0 0h500v500h-500z"/><use fill="#fff" xlink:href="#a"/></mask><path id="c" d="m75.15 25c0-13.80711875 11.19288125-25 25-25h300.7c13.80711875 0 25 11.19288125 25 25v100c0 13.80711875 11.19288125 25 25 25h49.15v110h-500v-110h50.15c13.80711875 0 25-11.19288125 25-25z" fill-rule="evenodd"/><mask id="d" maskUnits="userSpaceOnUse"><path d="m0 0h594.092602v594.092602h-594.092602z"/><use fill="#fff" xlink:href="#c"/></mask><path id="e" d="m228 260v50c0 13.80711875 11.19288125 25 25 25h20.15" fill-rule="evenodd"/></defs><g><use fill="#ffdd9c" xlink:href="#a"/><use fill="none" mask="url(#b)" stroke="#50256f" stroke-width="80" xlink:href="#a"/></g><path d="m375 300c0 68.98937806-56.01062194 125-125 125s-125-56.01062194-125-125" fill="none" stroke="#50256f" stroke-width="20"/><g><use fill="#fbeedc" xlink:href="#c"/><use fill="none" mask="url(#d)" stroke="#489fcc" stroke-width="80" xlink:href="#c"/></g><g><use fill="#fbeedc" xlink:href="#e"/><use fill="none" stroke="#50256f" stroke-width="20" xlink:href="#e"/></g><g fill="none" stroke="#489fcc" stroke-width="20"><path d="m286 71 75.00002 70.300019" transform="matrix(-.00000056 1 -1 -.00000056 429.650201 -217.349941)"/><path d="m286 71 75.00002 70.300019"/></g></svg>